<svg xmlns="http://www.w3.org/2000/svg" width="51.621" height="25.787" viewBox="0 0 51.621 25.787">
  <path id="_20634" data-name="20634" d="M232.38,387.887a8.941,8.941,0,0,0,6.349-2.253,5.855,5.855,0,0,0,1.73-4.217,5.457,5.457,0,0,0-1.608-3.936,8.371,8.371,0,0,0-4.423-2.169l-3.095-.6c-1.281-.243-2.01-.879-2.01-1.767,0-1.159,1.122-1.964,2.936-1.964a3.834,3.834,0,0,1,2.73,1,3.029,3.029,0,0,1,.767,1.646l4.46-1a5.42,5.42,0,0,0-1.646-3.338,8.9,8.9,0,0,0-6.349-2.366,8.683,8.683,0,0,0-5.909,2.085,5.861,5.861,0,0,0-1.889,4.338,5.025,5.025,0,0,0,1.449,3.693,8.8,8.8,0,0,0,4.217,2.132l3.057.72c1.524.365,2.207.926,2.207,1.926,0,1.244-1.122,1.973-2.973,1.973a4.156,4.156,0,0,1-3.095-1.169,2.765,2.765,0,0,1-.8-1.851l-4.581,1a5.709,5.709,0,0,0,1.73,3.534,9.258,9.258,0,0,0,6.751,2.581m33.9,0a9.54,9.54,0,0,0,6.825-2.609,8.913,8.913,0,0,0,2.412-4.058l-4.7-1.571a4.465,4.465,0,0,1-1.244,2.085,4.588,4.588,0,0,1-3.291,1.244,5.054,5.054,0,0,1-3.581-1.449,5.833,5.833,0,0,1-1.487-4.142,5.745,5.745,0,0,1,1.487-4.133,4.9,4.9,0,0,1,3.534-1.4,4.254,4.254,0,0,1,3.17,1.206,5.233,5.233,0,0,1,1.206,2.132l4.778-1.608a8.982,8.982,0,0,0-2.253-3.974,9.77,9.77,0,0,0-7.031-2.693,10.2,10.2,0,0,0-7.274,2.936,10.705,10.705,0,0,0-2.945,7.555,10.544,10.544,0,0,0,3.048,7.555,10.341,10.341,0,0,0,7.349,2.927m-16.222,0a6.743,6.743,0,0,0,4.217-1.206v-4.338a4.634,4.634,0,0,1-2.693.8,2.826,2.826,0,0,1-2.01-.645,2.794,2.794,0,0,1-.6-2.01V362.1h-5.3v5.423h10.6v5.143H243.666v9.116a6.085,6.085,0,0,0,1.571,4.376,6.57,6.57,0,0,0,4.825,1.73" transform="translate(-223.9 -362.1)" fill="#e2fdff"/>
</svg>
