<?xml version="1.0" encoding="utf-8"?>
<!-- Generator: Adobe Illustrator 26.2.1, SVG Export Plug-In . SVG Version: 6.00 Build 0)  -->
<svg version="1.1" id="Layer_1" xmlns="http://www.w3.org/2000/svg" xmlns:xlink="http://www.w3.org/1999/xlink" x="0px" y="0px"
	 viewBox="0 0 254.8 123.5" style="enable-background:new 0 0 254.8 123.5;" xml:space="preserve">
<style type="text/css">
	.st0{clip-path:url(#SVGID_00000163044473505152442000000010251776685609823904_);}
	.st1{fill:#673AB7;}
	.st2{fill:#AADB23;}
	.st3{fill:#7B9E19;}
	.st4{fill:#617D14;}
	.st5{fill:#475C0F;}
	.st6{opacity:0.901;fill:url(#Rectangle_174-2_00000077305218452904253060000010214165582435171235_);enable-background:new    ;}
	.st7{opacity:0.901;}
	.st8{fill:url(#SVGID_00000152946825340839852510000014005312944038833315_);}
	.st9{fill:none;}
</style>
<g>
	<defs>
		<path id="SVGID_1_" d="M18.4,0h218.1c10.1,0,18.4,8.2,18.4,18.4v86.8c0,10.1-8.2,18.3-18.4,18.3H18.4C8.2,123.5,0,115.3,0,105.2
			V18.4C0,8.2,8.2,0,18.4,0z"/>
	</defs>
	<clipPath id="SVGID_00000077295411138828444850000005840671928986262179_">
		<use xlink:href="#SVGID_1_"  style="overflow:visible;"/>
	</clipPath>
	<g id="Mask_by_Rectangle" style="clip-path:url(#SVGID_00000077295411138828444850000005840671928986262179_);">
		<g id="Mask_by_Rectangle-2" transform="translate(-316.271 -241.304)">
			<rect id="Rectangle" x="316.3" y="241.3" class="st1" width="254.8" height="138.9"/>
			<ellipse id="Oval" class="st2" cx="316.2" cy="241.2" rx="316.2" ry="241.2"/>
			<ellipse id="Oval_Copy_3" class="st3" cx="316.2" cy="241.2" rx="229.8" ry="175.3"/>
			<ellipse id="Oval_Copy_2" class="st4" cx="316.2" cy="241.3" rx="161.3" ry="123.1"/>
			<ellipse id="Oval_Copy" class="st5" cx="316.2" cy="241.2" rx="89" ry="67.9"/>
		</g>
	</g>
</g>
<g transform="matrix(1, 0, 0, 1, 0, 0)">
	
		<linearGradient id="Rectangle_174-2_00000139264308563273898850000001211630749733881760_" gradientUnits="userSpaceOnUse" x1="-410.2505" y1="420.5682" x2="-411.0079" y2="421.313" gradientTransform="matrix(350 0 0 -145 143848.5 61098.5)">
		<stop  offset="0" style="stop-color:#502C84;stop-opacity:0.404"/>
		<stop  offset="1" style="stop-color:#FFFFFF;stop-opacity:0.141"/>
	</linearGradient>
	
		<path id="Rectangle_174-2" style="opacity:0.901;fill:url(#Rectangle_174-2_00000139264308563273898850000001211630749733881760_);enable-background:new    ;" d="
		M13,0h228.8c7.2,0,13.1,6.9,13.1,15.3v92.9c0,8.5-5.9,15.3-13.1,15.3H13c-7.2,0-13.1-6.9-13.1-15.3V15.3C-0.1,6.9,5.8,0,13,0z"/>
</g>
<g transform="matrix(1, 0, 0, 1, 0, 0)">
	<g id="Rectangle_174-2_00000022522838866512434840000013793889685624338332_" transform="translate(60 60)" class="st7">
		
			<linearGradient id="SVGID_00000031900014168783183990000002603414333586556047_" gradientUnits="userSpaceOnUse" x1="-469.6385" y1="360.115" x2="-470.5956" y2="361.0559" gradientTransform="matrix(255 0 0 -123.889 119948 44674.707)">
			<stop  offset="0" style="stop-color:#502C84;stop-opacity:0.404"/>
			<stop  offset="1" style="stop-color:#FFFFFF;stop-opacity:0.141"/>
		</linearGradient>
		<path style="fill:url(#SVGID_00000031900014168783183990000002603414333586556047_);" d="M-42.1-60.2h219c9.9,0,18,8.1,18,18v87.9
			c0,9.9-8.1,18-18,18h-219c-9.9,0-18-8.1-18-18v-87.9C-60.1-52.1-52-60.2-42.1-60.2z"/>
		<path class="st9" d="M-42.1-59.7h219c9.7,0,17.5,7.8,17.5,17.5v87.9c0,9.7-7.8,17.5-17.5,17.5h-219c-9.7,0-17.5-7.8-17.5-17.5
			v-87.9C-59.6-51.8-51.8-59.7-42.1-59.7z"/>
	</g>
</g>
</svg>
