<svg xmlns="http://www.w3.org/2000/svg" width="70.751" height="15.638" viewBox="0 0 70.751 15.638">
  <g id="Group_655" data-name="Group 655" transform="translate(146.678 493.762)">
    <path id="Path_754" data-name="Path 754" d="M-41.379-486.224a3.641,3.641,0,0,0,1.386-1.384,3.777,3.777,0,0,0,.3-2.564,3.262,3.262,0,0,0-1.785-2.553,5.118,5.118,0,0,0-2.328-.469c-1.961,0-3.924,0-5.885-.007-.242,0-.284.075-.284.3q.01,5.153,0,10.306a7.981,7.981,0,0,0,.053,1.052,3.112,3.112,0,0,0,.836,1.945,3.146,3.146,0,0,0,1.721.8,19.131,19.131,0,0,0,4.679.092,3.406,3.406,0,0,0,2.179-1.017,3.756,3.756,0,0,0,1.059-2.41C-39.277-483.819-39.62-485.315-41.379-486.224Zm-5.742-4.254c0-.158.066-.187.2-.185.508.007,1.019,0,1.635,0a14.354,14.354,0,0,1,1.681.042,1.258,1.258,0,0,1,1.129,1.254q.01.185.007.37a1.324,1.324,0,0,1-1.417,1.477c-1.017.031-2.038.007-3.057.011-.134,0-.183-.04-.183-.178C-47.116-488.616-47.114-489.547-47.12-490.478Zm4.778,8.253a1.279,1.279,0,0,1-1.3,1.037,14.481,14.481,0,0,1-2.291-.033,1.177,1.177,0,0,1-1.18-1.263c-.024-.764,0-1.527-.011-2.293,0-.161.068-.187.2-.185.537,0,1.072,0,1.723,0,.5.026,1.116-.042,1.73.035a1.179,1.179,0,0,1,1.059.856A3.328,3.328,0,0,1-42.342-482.225Z" transform="translate(-75.036 -0.004)" fill="#e2fdff" stroke="rgba(0,0,0,0)" stroke-width="1"/>
    <path id="Path_755" data-name="Path 755" d="M70.727-479.772q-1.254-2.258-2.511-4.516c-.084-.152-.1-.229.092-.308a3.889,3.889,0,0,0,1.816-1.589,4.485,4.485,0,0,0,.605-2.936,4.415,4.415,0,0,0-1.538-3.022,4.445,4.445,0,0,0-2.867-1.041c-.931-.029-1.864-.007-2.8-.009a5.859,5.859,0,0,0-1.074.1,2.277,2.277,0,0,0-2.029,1.961,4.167,4.167,0,0,0-.1.889q0,5.684-.007,11.364c0,.213.077.242.26.24.766-.009,1.532-.013,2.3,0,.249,0,.3-.073.3-.308-.009-1.609,0-3.217-.009-4.826,0-.2.051-.273.262-.266.475.015.951.024,1.424,0a.508.508,0,0,1,.544.328c.841,1.624,1.7,3.235,2.546,4.855a.347.347,0,0,0,.365.218c.931-.011,1.864,0,2.8,0h.246C71.13-479.039,70.929-479.406,70.727-479.772ZM67.908-488.4a2.042,2.042,0,0,1-1.5,1.926,1.981,1.981,0,0,1-.493.075c-.854.009-1.708,0-2.559.009-.161,0-.191-.066-.189-.2.007-.493,0-.986,0-1.477h0c0-.467-.009-.933,0-1.4a1.088,1.088,0,0,1,1.193-1.18,14.346,14.346,0,0,1,1.871.031A1.937,1.937,0,0,1,67.908-488.4Z" transform="translate(-161.054 -0.006)" fill="#e2fdff" stroke="rgba(0,0,0,0)" stroke-width="1"/>
    <path id="Path_756" data-name="Path 756" d="M-100.14-487.427c0-1.828,0-3.656-.006-5.483,0-.236.063-.289.293-.289q4.511.012,9.023,0c.223,0,.3.041.3.285-.018.65-.016,1.3,0,1.95.006.234-.048.311-.3.31-2.049-.011-4.1,0-6.147-.012-.255,0-.323.063-.319.318.016.949.013,1.9,0,2.847,0,.208.056.265.264.264,1.4-.009,2.8,0,4.195-.009.211,0,.272.053.252.265q-.1,1.036-.164,2.074c-.012.189-.106.2-.256.2-1.328,0-2.656,0-3.984-.007-.235,0-.317.051-.308.3.02.579.006,1.16.006,1.74a2.517,2.517,0,0,0,.059.6,1,1,0,0,0,.766.787,3.855,3.855,0,0,0,.992.111c1.548,0,3.1,0,4.643-.005.22,0,.307.037.3.283-.019.667-.013,1.336,0,2,0,.188-.037.258-.244.257-1.741-.009-3.482,0-5.224-.009a8.057,8.057,0,0,1-1.929-.244,2.652,2.652,0,0,1-2.1-2.273,6.891,6.891,0,0,1-.114-1.283Q-100.137-484.936-100.14-487.427Z" transform="translate(-35.902 -0.005)" fill="#e2fdff" stroke="rgba(0,0,0,0)" stroke-width="1"/>
    <path id="Path_757" data-name="Path 757" d="M11.411-478.907q-2.027-5.764-4.047-11.532c-.227-.647-.42-1.3-.7-1.93a1.229,1.229,0,0,0-.649-.7,1.63,1.63,0,0,0-2.036.621,3.759,3.759,0,0,0-.3.612q-.39,1.119-.781,2.238Q1.021-484.246-.853-478.9c-.075.211-.064.279.189.273.816-.015,1.635-.011,2.454,0a.271.271,0,0,0,.31-.231c.209-.689.44-1.371.647-2.062a.283.283,0,0,1,.332-.236q2.192.01,4.382,0a.292.292,0,0,1,.33.246c.218.7.453,1.386.671,2.082a.24.24,0,0,0,.277.2c.423-.011.845,0,1.268,0,.4,0,.81-.015,1.213,0C11.475-478.617,11.486-478.7,11.411-478.907Zm-4.646-4.628c-1-.013-2-.007-3.008,0-.125,0-.224.013-.165-.18q.858-2.71,1.7-5.427a.657.657,0,0,1,.055-.1c.1.323.187.614.273.907.451,1.505.9,3.013,1.356,4.516C7.049-483.595,7.023-483.531,6.765-483.535Z" transform="translate(-113.312 -0.01)" fill="#e2fdff" stroke="rgba(0,0,0,0)" stroke-width="1"/>
    <path id="Path_758" data-name="Path 758" d="M126.931-478.79c-.029-.064-.048-.132-.07-.2q-1.825-5.206-3.649-10.414c-.328-.935-.651-1.873-.993-2.8a1.327,1.327,0,0,0-1.193-.97,1.538,1.538,0,0,0-1.514.662,3.146,3.146,0,0,0-.357.7q-.687,1.977-1.38,3.952l-3.11,8.873c-.125.359-.125.359.266.359.781,0,1.565-.007,2.348,0a.266.266,0,0,0,.308-.231c.209-.689.438-1.371.643-2.06a.289.289,0,0,1,.335-.24q2.192.013,4.379,0a.289.289,0,0,1,.335.24c.209.68.44,1.353.649,2.031.059.187.136.271.346.26.4-.018.81,0,1.215,0,.44,0,.878,0,1.318,0C126.947-478.623,126.984-478.662,126.931-478.79Zm-4.619-4.74c-1.028-.007-2.055,0-3.085,0-.121,0-.2,0-.15-.165q.862-2.737,1.717-5.473c0-.009.013-.013.053-.051.326,1.094.647,2.168.968,3.242.22.739.436,1.481.662,2.218C122.528-483.592,122.512-483.528,122.312-483.53Z" transform="translate(-203.383 -0.017)" fill="#e2fdff" stroke="rgba(0,0,0,0)" stroke-width="1"/>
    <path id="Path_759" data-name="Path 759" d="M-146.173-487.6c0-1.775,0-3.55-.005-5.325,0-.221.06-.279.278-.276.765.013,1.53.017,2.3,0,.246-.006.284.077.283.3q-.01,5.022,0,10.044c0,.158,0,.317.01.474a1.127,1.127,0,0,0,1.1,1.161,5.869,5.869,0,0,0,.788.05c1.328,0,2.656,0,3.984-.005.188,0,.261.036.257.243-.013.685-.01,1.371,0,2.056,0,.176-.038.244-.231.242-1.5-.009-3.008,0-4.511-.012a6.637,6.637,0,0,1-1.8-.253,3.1,3.1,0,0,1-2.4-2.9c-.077-.764-.041-1.527-.047-2.291C-146.179-485.266-146.173-486.435-146.173-487.6Z" transform="translate(0 0)" fill="#e2fdff" stroke="rgba(0,0,0,0)" stroke-width="1"/>
  </g>
</svg>
