<svg id="surface1" xmlns="http://www.w3.org/2000/svg" xmlns:xlink="http://www.w3.org/1999/xlink" width="49.476" height="79.841" viewBox="0 0 49.476 79.841">
  <defs>
    <clipPath id="clip-path">
      <path id="Path_738" data-name="Path 738" d="M450,652h16.419v11.537H450Zm0,0" transform="translate(-450 -652)" fill="#b7b7b7"/>
    </clipPath>
    <clipPath id="clip-path-2">
      <path id="Path_746" data-name="Path 746" d="M557,894h8.023v12.179H557Zm0,0" transform="translate(-557 -894)" fill="#b7b7b7"/>
    </clipPath>
  </defs>
  <path id="Path_735" data-name="Path 735" d="M65.194,0a2.287,2.287,0,0,0,.533.088,4.993,4.993,0,0,1,3.932,4.1,6.4,6.4,0,0,1,.078,1q0,11.961,0,23.924a1.884,1.884,0,0,1-.066.578,1.215,1.215,0,0,1-1.592.793c-.142-.054-.278-.124-.416-.188q-3.819-1.781-7.638-3.561a2.831,2.831,0,0,1-.882-.608,2.439,2.439,0,0,1-.687-1.659c0-.093,0-.187,0-.281q0-5.021,0-10.042a2.512,2.512,0,0,0-1.846-2.458,2.645,2.645,0,0,0-.7-.079q-4.391,0-8.782,0H37.6a2.488,2.488,0,0,0-2.49,2.468c0,2.45-.041,4.9.012,7.35a4.812,4.812,0,0,0,2.853,4.457c1.481.732,2.991,1.4,4.488,2.1L68.865,40.312c.083.038.166.076.245.122a1.274,1.274,0,0,1,.545,1.534,1.2,1.2,0,0,1-1.4.792c-.943-.231-1.881-.481-2.821-.726l-11.077-2.89L41.711,35.85,29,32.537c-.529-.138-1.058-.272-1.585-.418A5,5,0,0,1,23.864,27.9a6.3,6.3,0,0,1-.04-.747q0-11,0-22A4.942,4.942,0,0,1,26.616.5a4.069,4.069,0,0,1,1.61-.461A.267.267,0,0,0,28.378,0" transform="translate(-22.001 0)" fill="#b7b7b7"/>
  <path id="Path_736" data-name="Path 736" d="M0,591.485a1.989,1.989,0,0,0,.09-.593,7.293,7.293,0,0,1,.377-1.827,3.414,3.414,0,0,1,.487-.928,1.067,1.067,0,0,1,1.377-.305,1.116,1.116,0,0,1,.482,1.375.749.749,0,0,1-.06.127,3.378,3.378,0,0,0-.481,2.152,4.375,4.375,0,0,0,.114.856,2.16,2.16,0,0,0,1.606,1.575,5.238,5.238,0,0,0,1.576.171,6.581,6.581,0,0,0,1.689-.216,2.44,2.44,0,0,0,.783-.357.947.947,0,0,0,.081-1.559,2.7,2.7,0,0,0-.563-.376c-.394-.206-.791-.4-1.186-.608a1.079,1.079,0,0,1-.621-1.194.876.876,0,0,1,.8-.733,1.177,1.177,0,0,1,.573.084c.164.071.33.14.492.218a6.087,6.087,0,0,0,2.138.553,14.581,14.581,0,0,0,1.66.047,1.759,1.759,0,0,0,1.674-1.383,2.3,2.3,0,0,0,.035-.513q0-3.7,0-7.4a1.421,1.421,0,0,1,.065-.484,1.128,1.128,0,0,1,1.249-.724,1.106,1.106,0,0,1,.951,1.032c0,.07,0,.141,0,.211q0,3.675,0,7.35a2.363,2.363,0,0,0,.034.513,1.771,1.771,0,0,0,1.622,1.39c.366.019.733.014,1.1.009a1.776,1.776,0,0,0,1.791-1.8q.006-1.1,0-2.2a1.173,1.173,0,0,1,.172-.646,1.129,1.129,0,0,1,2.08.529c.013.9.036,1.8-.011,2.691a3.585,3.585,0,0,1-1.354,2.723,3.788,3.788,0,0,1-2.015.8,11.19,11.19,0,0,1-2.36,0,2.845,2.845,0,0,1-2.105-1.161c-.023-.031-.049-.059-.071-.086-.062.008-.08.056-.106.091a2.861,2.861,0,0,1-2.1,1.164c-.506.058-1.013.034-1.52.042a.562.562,0,0,0-.207.015.155.155,0,0,0,.013.113,2.5,2.5,0,0,1-.707,2.734A4.456,4.456,0,0,1,7.7,596.026a8.552,8.552,0,0,1-3.08.3,5.871,5.871,0,0,1-2.2-.572,4.088,4.088,0,0,1-2.324-3.393A1.151,1.151,0,0,0,0,591.906" transform="translate(0 -535.608)" fill="#b7b7b7"/>
  <g id="Group_652" data-name="Group 652" transform="translate(33.057 49.351)" clip-path="url(#clip-path)">
    <path id="Path_737" data-name="Path 737" d="M454.3,657.012c.3,0,.541,0,.783,0,.168,0,.171,0,.172-.167a4.867,4.867,0,0,0-.161-1.319,2.132,2.132,0,0,0-.273-.617,1.282,1.282,0,0,0-.851-.568,2,2,0,0,0-.744,0,1.186,1.186,0,0,0-1.008.975,1.241,1.241,0,0,0,1.115,1.651,6.642,6.642,0,0,0,.969.047m10.315-1.113a2.18,2.18,0,0,0-.146-.884,1.029,1.029,0,0,0-.716-.65,1.4,1.4,0,0,0-1.5.439,2.867,2.867,0,0,0-.478.825c-.144.353-.284.708-.425,1.062-.064.161-.064.163.076.263a2.768,2.768,0,0,0,1.922.506,1.254,1.254,0,0,0,1.158-.841,1.9,1.9,0,0,0,.111-.72m1.963.307c-.057.057-.039.132-.042.2a3.621,3.621,0,0,1-.41,1.5,3.2,3.2,0,0,1-2.4,1.712,3.975,3.975,0,0,1-2.188-.162,3.147,3.147,0,0,1-1.36-.959c-.076-.094-.129-.122-.242-.046a4.4,4.4,0,0,1-2.3.7,1.173,1.173,0,0,1-.164,0c-.114-.01-.162.03-.176.152a5.9,5.9,0,0,1-.181.94A4.165,4.165,0,0,1,455,662.973a5.026,5.026,0,0,1-1.832.527,8.215,8.215,0,0,1-2.192-.075,1.056,1.056,0,0,1-.8-1.133.993.993,0,0,1,1.089-.835,6.19,6.19,0,0,0,1.563.045,3.7,3.7,0,0,0,.643-.117,2.4,2.4,0,0,0,1.6-2.2,1.216,1.216,0,0,0-.526-.032,8.741,8.741,0,0,1-1.862-.138,4.214,4.214,0,0,1-.561-.161,2.507,2.507,0,0,1-1.686-1.936,4.913,4.913,0,0,1,.172-2.766,2.993,2.993,0,0,1,2.333-2.041,3.083,3.083,0,0,1,3.41,1.47,6.377,6.377,0,0,1,.76,2.173,9.625,9.625,0,0,1,.14,1.09c.008.113.037.17.163.166a4.153,4.153,0,0,0,.792-.065,1.449,1.449,0,0,0,.886-.567,3.685,3.685,0,0,0,.463-.889,10.328,10.328,0,0,1,.7-1.53,4.8,4.8,0,0,1,.571-.8,3.215,3.215,0,0,1,2.891-1.056,3.171,3.171,0,0,1,2.765,2.634,4.632,4.632,0,0,0,.093.62" transform="translate(-450.156 -652.038)" fill="#b7b7b7"/>
  </g>
  <path id="Path_739" data-name="Path 739" d="M317.729,584.72q0-2.013,0-4.027c0-.109,0-.219.011-.327a1.132,1.132,0,0,1,2.255.043c0,.078,0,.156,0,.234q0,3.91,0,7.819a2.148,2.148,0,0,0,.048.535,1.018,1.018,0,0,0,.629.733,1.813,1.813,0,0,0,.637.138c.3.009.609.015.913.009a1.784,1.784,0,0,0,1.769-1.78c.009-.718,0-1.436,0-2.154a1.386,1.386,0,0,1,.064-.461,1.172,1.172,0,0,1,1.278-.765,1.091,1.091,0,0,1,.918,1.061c.008.92.049,1.842-.022,2.761a3.574,3.574,0,0,1-2.97,3.366,7.452,7.452,0,0,1-3.2-.072,3.2,3.2,0,0,1-.964-.411,2.86,2.86,0,0,1-1.3-2.025,5.9,5.9,0,0,1-.068-1.026q0-1.826,0-3.652" transform="translate(-294.214 -535.509)" fill="#b7b7b7"/>
  <path id="Path_740" data-name="Path 740" d="M33.382,814.626a1.344,1.344,0,0,1-1.337,1.294,1.3,1.3,0,1,1,.013-2.6,1.342,1.342,0,0,1,1.324,1.308" transform="translate(-28.396 -751.69)" fill="#b7b7b7"/>
  <path id="Path_741" data-name="Path 741" d="M211.607,759.393a1.3,1.3,0,0,1-1.281,1.312,1.3,1.3,0,1,1-.02-2.6,1.3,1.3,0,0,1,1.3,1.291" transform="translate(-193.445 -700.657)" fill="#b7b7b7"/>
  <path id="Path_742" data-name="Path 742" d="M72.879,814.621a1.271,1.271,0,0,1,1.253-1.3,1.3,1.3,0,1,1,0,2.6,1.271,1.271,0,0,1-1.252-1.3" transform="translate(-67.31 -751.692)" fill="#b7b7b7"/>
  <path id="Path_743" data-name="Path 743" d="M370.663,760.551a1.253,1.253,0,0,1-1.261,1.287,1.3,1.3,0,0,1,.016-2.593,1.259,1.259,0,0,1,1.246,1.305" transform="translate(-340.763 -701.715)" fill="#b7b7b7"/>
  <path id="Path_744" data-name="Path 744" d="M251.681,759.376a1.292,1.292,0,0,1,1.284-1.276,1.3,1.3,0,1,1-1.284,1.276" transform="translate(-232.979 -700.656)" fill="#b7b7b7"/>
  <g id="Group_653" data-name="Group 653" transform="translate(41.232 67.662)" clip-path="url(#clip-path-2)">
    <path id="Path_745" data-name="Path 745" d="M558.174,906.448a.811.811,0,0,0-.26-.092,1.042,1.042,0,0,1-.7-1.092,1.022,1.022,0,0,1,.9-.935c.108-.015.218-.019.326-.025a1.236,1.236,0,0,0,.953-.52,3.2,3.2,0,0,0,.3-.476c.155-.306.3-.615.46-.92a.319.319,0,0,0,.006-.308c-.91-1.991-1.75-4.014-2.645-6.013a1.88,1.88,0,0,1-.168-.6,1.08,1.08,0,0,1,.844-1.136,1.18,1.18,0,0,1,1.386.706c.517,1.354,1.073,2.693,1.614,4.037a.707.707,0,0,0,.119.245c.076-.052.083-.135.111-.205q.8-2.023,1.59-4.047a1.281,1.281,0,0,1,1.344-.749,1.027,1.027,0,0,1,.85,1,1.434,1.434,0,0,1-.1.6c-.983,2.317-1.932,4.649-2.937,6.956a12.323,12.323,0,0,1-.881,1.675c-.154.244-.327.475-.5.7a2.942,2.942,0,0,1-2.134,1.159c-.075.008-.158-.011-.224.044" transform="translate(-557.188 -894.269)" fill="#b7b7b7"/>
  </g>
  <path id="Path_747" data-name="Path 747" d="M10.675,859.252c.081-.043.115-.126.163-.195q1.607-2.26,3.211-4.522c.095-.133.2-.263.3-.391a1.016,1.016,0,0,1,1.186-.3,1.172,1.172,0,0,1,.782,1.112c0,3.121,0,6.243,0,9.364a1.211,1.211,0,0,1-1.188,1.194,1.16,1.16,0,0,1-1.155-1.191c.009-1.8.024-3.6.037-5.407,0-.077,0-.155,0-.232-.085-.018-.1.053-.124.091q-1.063,1.5-2.121,3a1.776,1.776,0,0,1-.513.505A1.133,1.133,0,0,1,9.8,862.11a2.293,2.293,0,0,1-.245-.312q-1.012-1.463-2.026-2.924a.539.539,0,0,0-.173-.2.614.614,0,0,0-.02.256q0,2.657,0,5.314a1.25,1.25,0,0,1-.29.865,1.171,1.171,0,0,1-1.274.352,1.189,1.189,0,0,1-.784-1.067c0-.054,0-.109,0-.164q0-4.577,0-9.153a1.278,1.278,0,0,1,.322-.925,1.139,1.139,0,0,1,1.565-.111,1.686,1.686,0,0,1,.312.347q1.669,2.346,3.339,4.69a.559.559,0,0,0,.148.178" transform="translate(-4.607 -789.184)" fill="#b7b7b7"/>
  <path id="Path_748" data-name="Path 748" d="M313.507,854.366a5.918,5.918,0,0,0,.035.8,1.544,1.544,0,0,0,1.436,1.425,1.69,1.69,0,0,0,1.955-1.219,3.568,3.568,0,0,0,.154-.872,3.894,3.894,0,0,0-.251-1.79,1.556,1.556,0,0,0-1.9-.932,1.8,1.8,0,0,0-1.34,1.363,4.09,4.09,0,0,0-.091,1.226m.023-3.587a.464.464,0,0,0,.073-.048,3.342,3.342,0,0,1,5.271.96,4.807,4.807,0,0,1,.463,1.538,6.341,6.341,0,0,1-.123,2.485,3.527,3.527,0,0,1-1.721,2.318,3.721,3.721,0,0,1-2.854.317,2.534,2.534,0,0,1-1.1-.642c-.062.016-.062.078-.084.123a1.172,1.172,0,0,1-1.3.64,1.115,1.115,0,0,1-.894-1.132q0-4.986,0-9.972a1.094,1.094,0,0,1,0-.14,1.126,1.126,0,0,1,2.247,0c0,.078,0,.156,0,.234q0,1.533,0,3.067a.6.6,0,0,0,.023.252" transform="translate(-288.209 -782.155)" fill="#b7b7b7"/>
  <path id="Path_749" data-name="Path 749" d="M184.681,898.47c0-.039,0-.078,0-.117a3.766,3.766,0,0,0-.209-1.285,1.466,1.466,0,0,0-.777-.862,2.007,2.007,0,0,0-1.237-.116,1.635,1.635,0,0,0-1.156.97,2.977,2.977,0,0,0-.273,1.081,3.641,3.641,0,0,0,.249,1.787,1.6,1.6,0,0,0,.8.847,1.753,1.753,0,0,0,2.444-1.082,4.2,4.2,0,0,0,.158-1.224m-1.862,4.338a4.621,4.621,0,0,1-1.786-.3,3.371,3.371,0,0,1-2.027-2.133,5.43,5.43,0,0,1,0-3.65,3.643,3.643,0,0,1,2.892-2.478,4.827,4.827,0,0,1,2.361.1,3.467,3.467,0,0,1,2.4,2.332,5.393,5.393,0,0,1-.065,3.714,3.561,3.561,0,0,1-2.779,2.318,4.467,4.467,0,0,1-1,.1" transform="translate(-165.465 -826.475)" fill="#b7b7b7"/>
  <path id="Path_750" data-name="Path 750" d="M509.7,852.355c0-1.661.006-3.322,0-4.983a1.215,1.215,0,0,1,.8-1.127,1.142,1.142,0,0,1,1.5,1.049c0,.062,0,.124,0,.187q0,4.889,0,9.779a1.419,1.419,0,0,1-.078.528,1.152,1.152,0,0,1-2.219-.4q0-2.515,0-5.03" transform="translate(-471.812 -782.173)" fill="#b7b7b7"/>
  <path id="Path_751" data-name="Path 751" d="M444.584,898.594v-3.019a1.716,1.716,0,0,1,.048-.487,1.106,1.106,0,0,1,2.169.217c.008.093.007.187.007.281q0,3.019,0,6.039a1.784,1.784,0,0,1-.045.487,1.1,1.1,0,0,1-2.164-.171,2.988,2.988,0,0,1-.014-.327q0-1.51,0-3.02" transform="translate(-411.542 -826.596)" fill="#b7b7b7"/>
  <path id="Path_752" data-name="Path 752" d="M443.717,846.765a1.321,1.321,0,0,1,1.315,1.307A1.363,1.363,0,0,1,443.7,849.4a1.328,1.328,0,0,1-1.252-1.37,1.284,1.284,0,0,1,1.274-1.263" transform="translate(-409.567 -782.712)" fill="#b7b7b7"/>
</svg>
