<svg xmlns="http://www.w3.org/2000/svg" width="17.231" height="13.538" viewBox="0 0 17.231 13.538">
  <path id="Path" d="M17.231,1.6A7.243,7.243,0,0,1,15.2,2.14,3.45,3.45,0,0,0,16.755.25a7.226,7.226,0,0,1-2.245.829A3.589,3.589,0,0,0,11.929,0,3.478,3.478,0,0,0,8.394,3.418a3.3,3.3,0,0,0,.092.779A10.153,10.153,0,0,1,1.2.625,3.317,3.317,0,0,0,.721,2.344,3.389,3.389,0,0,0,2.293,5.189a3.6,3.6,0,0,1-1.6-.428c0,.015,0,.029,0,.043A3.451,3.451,0,0,0,3.528,8.155a3.667,3.667,0,0,1-1.6.059,3.526,3.526,0,0,0,3.3,2.374A7.249,7.249,0,0,1,.843,12.051,7.36,7.36,0,0,1,0,12a10.25,10.25,0,0,0,5.419,1.536A9.817,9.817,0,0,0,15.477,3.814c0-.148,0-.3-.01-.442A7.042,7.042,0,0,0,17.231,1.6Z" fill="#fff"/>
</svg>
