<svg xmlns="http://www.w3.org/2000/svg" width="47.97" height="48.053" viewBox="0 0 47.97 48.053">
  <g id="Phone_Shake" transform="translate(-0.015 0.076)">
    <g id="Smart_Phone">
      <path id="Path_761" data-name="Path 761" d="M11.8,4,28.6,1A3.761,3.761,0,0,1,33,4.1l6.2,35.4a3.761,3.761,0,0,1-3.1,4.4l-16.8,3a3.761,3.761,0,0,1-4.4-3.1L8.7,8.4A3.812,3.812,0,0,1,11.8,4Z" fill="none" stroke="#082ac8" stroke-width="2"/>
      <circle id="Ellipse_16" data-name="Ellipse 16" cx="1.9" cy="1.9" r="1.9" transform="translate(24.891 40.152) rotate(-9.997)" fill="#082ac8"/>
      <line id="Line_17" data-name="Line 17" y1="4.2" x2="24.2" transform="translate(14.3 35.9)" fill="none" stroke="#082ac8" stroke-width="2"/>
    </g>
    <line id="Line_18" data-name="Line 18" x2="3.4" y2="19.7" transform="translate(39.8 9.5)" fill="none" stroke="#082ac8" stroke-width="2"/>
    <line id="Line_19" data-name="Line 19" x2="2.4" y2="13.8" transform="translate(44.6 11)" fill="none" stroke="#082ac8" stroke-width="2"/>
    <line id="Line_20" data-name="Line 20" x2="3.4" y2="19.7" transform="translate(4.8 17)" fill="none" stroke="#082ac8" stroke-width="2"/>
    <line id="Line_21" data-name="Line 21" x2="2.4" y2="13.8" transform="translate(1 21.5)" fill="none" stroke="#082ac8" stroke-width="2"/>
  </g>
</svg>
