<svg xmlns="http://www.w3.org/2000/svg" width="88.069" height="43.651" viewBox="0 0 88.069 43.651">
  <path id="_20634" data-name="20634" d="M238.368,405.751c4.594,0,8.359-1.425,10.831-3.814a9.872,9.872,0,0,0,2.951-7.138,9.2,9.2,0,0,0-2.744-6.663,14.324,14.324,0,0,0-7.545-3.672l-5.28-1.013c-2.185-.411-3.43-1.488-3.43-2.991,0-1.963,1.914-3.324,5.009-3.324a6.57,6.57,0,0,1,4.658,1.694,5.111,5.111,0,0,1,1.308,2.786l7.609-1.693a9.149,9.149,0,0,0-2.807-5.65,15.243,15.243,0,0,0-10.831-4,14.885,14.885,0,0,0-10.081,3.529,9.886,9.886,0,0,0-3.222,7.344,8.47,8.47,0,0,0,2.472,6.252A15.046,15.046,0,0,0,234.46,391l5.216,1.219c2.6.617,3.765,1.567,3.765,3.26,0,2.1-1.914,3.339-5.073,3.339a7.121,7.121,0,0,1-5.28-1.978,4.664,4.664,0,0,1-1.372-3.134L223.9,395.4a9.635,9.635,0,0,0,2.951,5.983c2.616,2.738,6.8,4.368,11.517,4.368m57.84,0a16.346,16.346,0,0,0,11.645-4.416,15.063,15.063,0,0,0,4.115-6.869l-8.024-2.659a7.547,7.547,0,0,1-2.122,3.529,7.861,7.861,0,0,1-5.615,2.1,8.659,8.659,0,0,1-6.109-2.453,9.829,9.829,0,0,1-2.536-7.011,9.681,9.681,0,0,1,2.536-7,8.4,8.4,0,0,1,6.03-2.374,7.288,7.288,0,0,1,5.408,2.042,8.84,8.84,0,0,1,2.058,3.609l8.151-2.722a15.174,15.174,0,0,0-3.844-6.726,16.74,16.74,0,0,0-12-4.558,17.467,17.467,0,0,0-12.41,4.97,18.045,18.045,0,0,0-5.025,12.788,17.347,17.347,0,0,0,17.738,17.742m-27.676,0c3.557,0,6.094-1.092,7.194-2.042v-7.344a7.949,7.949,0,0,1-4.594,1.361,4.847,4.847,0,0,1-3.43-1.092,4.7,4.7,0,0,1-1.021-3.4V362.1h-9.045v9.18h18.089v8.7H257.622v15.431a10.253,10.253,0,0,0,2.68,7.407c1.914,1.915,4.722,2.928,8.231,2.928" transform="translate(-223.9 -362.1)" fill="#b7b7b7"/>
</svg>
