<svg id="surface1" xmlns="http://www.w3.org/2000/svg" xmlns:xlink="http://www.w3.org/1999/xlink" width="29" height="47" viewBox="0 0 29 47">
  <defs>
    <clipPath id="clip-path">
      <path id="Path_738" data-name="Path 738" d="M450,652h9.624v6.763H450Zm0,0" transform="translate(-450 -652)" fill="#fff"/>
    </clipPath>
    <clipPath id="clip-path-2">
      <path id="Path_746" data-name="Path 746" d="M557,894h4.7v7.139H557Zm0,0" transform="translate(-557 -894)" fill="#fff"/>
    </clipPath>
  </defs>
  <path id="Path_735" data-name="Path 735" d="M48.072,0a1.341,1.341,0,0,0,.313.051,2.927,2.927,0,0,1,2.3,2.4,3.75,3.75,0,0,1,.046.587q0,7.011,0,14.023a1.1,1.1,0,0,1-.039.339.712.712,0,0,1-.933.465c-.083-.031-.163-.072-.244-.11q-2.238-1.044-4.477-2.087a1.659,1.659,0,0,1-.517-.356,1.43,1.43,0,0,1-.4-.973c0-.055,0-.11,0-.165q0-2.943,0-5.886a1.472,1.472,0,0,0-1.082-1.441A1.55,1.55,0,0,0,42.63,6.8H31.895a1.458,1.458,0,0,0-1.459,1.446c0,1.436-.024,2.873.007,4.308a2.821,2.821,0,0,0,1.672,2.612c.868.429,1.753.823,2.631,1.232l15.478,7.224c.048.023.1.045.144.072a.747.747,0,0,1,.319.9.7.7,0,0,1-.823.464c-.553-.135-1.1-.282-1.654-.425l-6.493-1.694-7.41-1.931-7.448-1.942c-.31-.081-.62-.159-.929-.245a2.93,2.93,0,0,1-2.084-2.473,3.7,3.7,0,0,1-.023-.438q0-6.449,0-12.9A2.9,2.9,0,0,1,25.46.293,2.385,2.385,0,0,1,26.4.023.156.156,0,0,0,26.492,0" transform="translate(-22.755)" fill="#fff"/>
  <path id="Path_736" data-name="Path 736" d="M0,586.5a1.166,1.166,0,0,0,.052-.348,4.274,4.274,0,0,1,.221-1.071,2,2,0,0,1,.286-.544.626.626,0,0,1,.807-.179.654.654,0,0,1,.283.806.438.438,0,0,1-.035.074,1.98,1.98,0,0,0-.282,1.261,2.565,2.565,0,0,0,.067.5,1.266,1.266,0,0,0,.941.923,3.069,3.069,0,0,0,.924.1,3.859,3.859,0,0,0,.99-.126,1.431,1.431,0,0,0,.459-.209.555.555,0,0,0,.048-.914,1.586,1.586,0,0,0-.33-.221c-.231-.12-.464-.237-.7-.356a.632.632,0,0,1-.364-.7.514.514,0,0,1,.468-.43.69.69,0,0,1,.336.049c.1.042.194.082.288.128a3.568,3.568,0,0,0,1.253.324,8.562,8.562,0,0,0,.973.028,1.031,1.031,0,0,0,.981-.811,1.35,1.35,0,0,0,.021-.3q0-2.168,0-4.336a.833.833,0,0,1,.038-.284.661.661,0,0,1,.732-.424.648.648,0,0,1,.557.605c0,.041,0,.082,0,.124q0,2.154,0,4.308a1.384,1.384,0,0,0,.02.3,1.038,1.038,0,0,0,.951.815c.214.011.43.008.645.005a1.041,1.041,0,0,0,1.05-1.057q0-.645,0-1.29a.688.688,0,0,1,.1-.379.662.662,0,0,1,1.219.31c.008.526.021,1.053-.006,1.577a2.1,2.1,0,0,1-.794,1.6,2.22,2.22,0,0,1-1.181.471,6.556,6.556,0,0,1-1.383,0,1.667,1.667,0,0,1-1.234-.681c-.013-.018-.029-.035-.041-.05-.037,0-.047.033-.062.053a1.677,1.677,0,0,1-1.232.682c-.3.034-.594.02-.891.025a.328.328,0,0,0-.122.009.091.091,0,0,0,.008.066,1.466,1.466,0,0,1-.414,1.6,2.612,2.612,0,0,1-1.142.628,5.013,5.013,0,0,1-1.805.173A3.439,3.439,0,0,1,1.414,589a2.4,2.4,0,0,1-1.362-1.989A.675.675,0,0,0,0,586.743" transform="translate(0 -553.604)" fill="#fff"/>
  <g id="Group_652" data-name="Group 652" transform="translate(19.376 29.072)" clip-path="url(#clip-path)">
    <path id="Path_737" data-name="Path 737" d="M452.589,654.954c.175,0,.317,0,.459,0,.1,0,.1,0,.1-.1a2.852,2.852,0,0,0-.094-.773,1.248,1.248,0,0,0-.16-.362.751.751,0,0,0-.5-.333,1.169,1.169,0,0,0-.436,0,.7.7,0,0,0-.591.572.727.727,0,0,0,.653.968,3.9,3.9,0,0,0,.568.027m6.046-.652a1.278,1.278,0,0,0-.085-.518.6.6,0,0,0-.42-.381.82.82,0,0,0-.881.258,1.682,1.682,0,0,0-.28.484c-.084.207-.167.415-.249.622-.038.094-.038.1.045.154a1.622,1.622,0,0,0,1.127.3.735.735,0,0,0,.679-.493,1.112,1.112,0,0,0,.065-.422m1.151.18c-.034.033-.023.077-.025.117a2.122,2.122,0,0,1-.241.879,1.873,1.873,0,0,1-1.409,1,2.33,2.33,0,0,1-1.282-.095,1.845,1.845,0,0,1-.8-.562c-.045-.055-.076-.071-.142-.027a2.578,2.578,0,0,1-1.346.41.7.7,0,0,1-.1,0c-.067-.006-.1.018-.1.089a3.463,3.463,0,0,1-.106.551,2.442,2.442,0,0,1-1.238,1.6,2.944,2.944,0,0,1-1.074.309,4.809,4.809,0,0,1-1.285-.044.619.619,0,0,1-.468-.664.582.582,0,0,1,.639-.489,3.628,3.628,0,0,0,.916.026,2.16,2.16,0,0,0,.377-.068,1.4,1.4,0,0,0,.94-1.287.713.713,0,0,0-.308-.019,5.132,5.132,0,0,1-1.092-.081,2.467,2.467,0,0,1-.329-.094,1.469,1.469,0,0,1-.988-1.135,2.879,2.879,0,0,1,.1-1.621,1.754,1.754,0,0,1,1.368-1.2,1.807,1.807,0,0,1,2,.862,3.737,3.737,0,0,1,.446,1.274,5.644,5.644,0,0,1,.082.639c0,.066.022.1.1.1a2.441,2.441,0,0,0,.464-.038.849.849,0,0,0,.519-.333,2.157,2.157,0,0,0,.271-.521,6.047,6.047,0,0,1,.41-.9,2.814,2.814,0,0,1,.335-.468,1.884,1.884,0,0,1,1.695-.619,1.859,1.859,0,0,1,1.62,1.544,2.715,2.715,0,0,0,.054.363" transform="translate(-450.162 -652.039)" fill="#fff"/>
  </g>
  <path id="Path_739" data-name="Path 739" d="M317.729,582.5q0-1.18,0-2.36c0-.064,0-.128.006-.192a.663.663,0,0,1,1.321.025c0,.046,0,.091,0,.137q0,2.292,0,4.583a1.259,1.259,0,0,0,.028.313.6.6,0,0,0,.369.43,1.064,1.064,0,0,0,.373.081c.178.005.357.009.535.005a1.046,1.046,0,0,0,1.037-1.043c.005-.421,0-.842,0-1.262a.813.813,0,0,1,.038-.27.687.687,0,0,1,.749-.449.64.64,0,0,1,.538.622c0,.539.029,1.08-.013,1.618a2.1,2.1,0,0,1-1.741,1.973,4.369,4.369,0,0,1-1.878-.042,1.879,1.879,0,0,1-.565-.241,1.677,1.677,0,0,1-.76-1.187,3.463,3.463,0,0,1-.04-.6q0-1.07,0-2.141" transform="translate(-303.946 -553.523)" fill="#fff"/>
  <path id="Path_740" data-name="Path 740" d="M32.29,814.085a.788.788,0,0,1-.784.759.763.763,0,1,1,.008-1.525.787.787,0,0,1,.776.767" transform="translate(-29.368 -777.034)" fill="#fff"/>
  <path id="Path_741" data-name="Path 741" d="M210.517,758.858a.764.764,0,0,1-.751.769.763.763,0,1,1-.012-1.526.764.764,0,0,1,.763.757" transform="translate(-199.871 -724.281)" fill="#fff"/>
  <path id="Path_742" data-name="Path 742" d="M72.879,814.083a.745.745,0,0,1,.734-.762.763.763,0,1,1,0,1.525.745.745,0,0,1-.734-.763" transform="translate(-69.615 -777.036)" fill="#fff"/>
  <path id="Path_743" data-name="Path 743" d="M369.609,760.011a.734.734,0,0,1-.739.755.76.76,0,0,1,.009-1.52.738.738,0,0,1,.73.765" transform="translate(-352.084 -725.375)" fill="#fff"/>
  <path id="Path_744" data-name="Path 744" d="M251.681,758.848a.757.757,0,0,1,.752-.748.763.763,0,1,1-.752.748" transform="translate(-240.719 -724.279)" fill="#fff"/>
  <g id="Group_653" data-name="Group 653" transform="translate(24.168 39.861)" clip-path="url(#clip-path-2)">
    <path id="Path_745" data-name="Path 745" d="M557.772,901.417a.474.474,0,0,0-.152-.054.611.611,0,0,1-.413-.64.6.6,0,0,1,.526-.548c.063-.009.128-.011.191-.015a.724.724,0,0,0,.558-.3,1.882,1.882,0,0,0,.173-.279c.091-.179.178-.361.269-.54a.187.187,0,0,0,0-.18c-.533-1.167-1.026-2.353-1.55-3.524a1.1,1.1,0,0,1-.1-.355.633.633,0,0,1,.495-.666.692.692,0,0,1,.812.414c.3.793.629,1.578.946,2.366a.413.413,0,0,0,.069.143c.044-.031.049-.079.065-.12q.467-1.186.932-2.372a.751.751,0,0,1,.788-.439.6.6,0,0,1,.5.588.839.839,0,0,1-.061.349c-.576,1.358-1.132,2.725-1.722,4.077a7.223,7.223,0,0,1-.517.982c-.09.143-.192.278-.295.412a1.725,1.725,0,0,1-1.251.679c-.044,0-.092-.006-.132.026" transform="translate(-557.194 -894.278)" fill="#fff"/>
  </g>
  <path id="Path_747" data-name="Path 747" d="M8.322,856.984c.048-.025.067-.074.1-.114l1.882-2.651c.055-.078.115-.154.175-.229a.6.6,0,0,1,.7-.173.687.687,0,0,1,.458.652c0,1.83,0,3.659,0,5.489a.71.71,0,0,1-.7.7.68.68,0,0,1-.677-.7c.005-1.056.014-2.113.022-3.169,0-.045,0-.091,0-.136-.05-.01-.057.031-.072.053q-.623.878-1.243,1.758a1.041,1.041,0,0,1-.3.3.664.664,0,0,1-.852-.1,1.347,1.347,0,0,1-.144-.183q-.593-.857-1.187-1.714a.316.316,0,0,0-.1-.12.36.36,0,0,0-.012.15q0,1.557,0,3.115a.733.733,0,0,1-.17.507.686.686,0,0,1-.747.206A.7.7,0,0,1,4.99,860c0-.032,0-.064,0-.1q0-2.683,0-5.365a.749.749,0,0,1,.189-.542.667.667,0,0,1,.918-.065.988.988,0,0,1,.183.2l1.957,2.749a.328.328,0,0,0,.087.1" transform="translate(-4.765 -815.713)" fill="#fff"/>
  <path id="Path_748" data-name="Path 748" d="M312.573,850.971a3.466,3.466,0,0,0,.02.468.905.905,0,0,0,.842.835.99.99,0,0,0,1.146-.714,2.093,2.093,0,0,0,.09-.511,2.283,2.283,0,0,0-.147-1.049.912.912,0,0,0-1.113-.547,1.052,1.052,0,0,0-.785.8,2.4,2.4,0,0,0-.053.719m.013-2.1a.277.277,0,0,0,.043-.028,1.959,1.959,0,0,1,3.089.563,2.819,2.819,0,0,1,.272.9,3.717,3.717,0,0,1-.072,1.456,2.068,2.068,0,0,1-1.009,1.359,2.181,2.181,0,0,1-1.673.186,1.485,1.485,0,0,1-.647-.377c-.036.01-.036.046-.049.072a.687.687,0,0,1-.765.375.654.654,0,0,1-.524-.664q0-2.922,0-5.845a.638.638,0,0,1,0-.082.66.66,0,0,1,1.317,0c0,.046,0,.092,0,.137q0,.9,0,1.8a.349.349,0,0,0,.013.148" transform="translate(-297.745 -808.443)" fill="#fff"/>
  <path id="Path_749" data-name="Path 749" d="M182.2,896.681c0-.023,0-.046,0-.068a2.207,2.207,0,0,0-.122-.753.86.86,0,0,0-.456-.505,1.176,1.176,0,0,0-.725-.068.958.958,0,0,0-.678.568,1.745,1.745,0,0,0-.16.634,2.134,2.134,0,0,0,.146,1.048.934.934,0,0,0,.47.5,1.027,1.027,0,0,0,1.433-.634,2.461,2.461,0,0,0,.093-.717m-1.091,2.543a2.708,2.708,0,0,1-1.047-.174,1.976,1.976,0,0,1-1.188-1.25,3.182,3.182,0,0,1,0-2.139,2.135,2.135,0,0,1,1.7-1.453,2.83,2.83,0,0,1,1.384.057,2.032,2.032,0,0,1,1.407,1.367,3.161,3.161,0,0,1-.038,2.177,2.087,2.087,0,0,1-1.629,1.358,2.618,2.618,0,0,1-.587.058" transform="translate(-170.939 -854.28)" fill="#fff"/>
  <path id="Path_750" data-name="Path 750" d="M509.694,849.8c0-.973,0-1.947,0-2.921a.712.712,0,0,1,.468-.661.669.669,0,0,1,.881.615c0,.036,0,.073,0,.11q0,2.866,0,5.732a.83.83,0,0,1-.046.309.675.675,0,0,1-1.3-.236q0-1.474,0-2.948" transform="translate(-487.489 -808.461)" fill="#fff"/>
  <path id="Path_751" data-name="Path 751" d="M444.584,896.809v-1.77a1.006,1.006,0,0,1,.028-.285.648.648,0,0,1,1.271.127c0,.055,0,.11,0,.165q0,1.77,0,3.54a1.046,1.046,0,0,1-.026.286.647.647,0,0,1-1.268-.1,1.748,1.748,0,0,1-.008-.192q0-.885,0-1.77" transform="translate(-425.217 -854.406)" fill="#fff"/>
  <path id="Path_752" data-name="Path 752" d="M443.19,846.765a.774.774,0,0,1,.771.766.8.8,0,0,1-.783.777.778.778,0,0,1-.734-.8.752.752,0,0,1,.747-.74" transform="translate(-423.173 -809.019)" fill="#fff"/>
</svg>
