<svg id="zain_logo" xmlns="http://www.w3.org/2000/svg" width="59.712" height="64.487" viewBox="0 0 59.712 64.487">
  <path id="Combined-Shape" d="M33.2,54.061a8.587,8.587,0,0,1,6.422,2.587,9.2,9.2,0,0,1,2.3,6.685h0v7.082c-.074,0-.164.009-.233.009a3.174,3.174,0,0,1-2.294-.845,2.991,2.991,0,0,1-.776-2.232h0V64.028c0-2.623-.639-4.288-1.724-5.366a5.05,5.05,0,0,0-3.685-1.451c-3.044,0-5.077,2.152-5.077,5.3,0,3.2,2.022,4.946,4.334,4.946,2.164,0,3.5-1.329,3.97-3.765a4.686,4.686,0,0,1,.846,2.6c0,2.268-1.955,4.2-5.19,4.2-4.2,0-7.432-3.162-7.432-7.9A8.262,8.262,0,0,1,33.2,54.061Zm31.5.165a3.049,3.049,0,0,1,2.238.843,2.972,2.972,0,0,1,.779,2.231h0V67.51a3.169,3.169,0,0,1-.719,2.181,2.411,2.411,0,0,1-1.8.732c-1.025,0-1.806-.437-2.8-1.734S56.1,60.467,54.712,58.65a.127.127,0,0,0-.105-.065c-.05,0-.09.045-.09.134h0v11.7c-.072,0-.115.008-.186.008a3.039,3.039,0,0,1-2.236-.845,2.967,2.967,0,0,1-.775-2.232h0V57.141a3.177,3.177,0,0,1,.71-2.183,2.418,2.418,0,0,1,1.81-.732c1.03,0,1.814.43,2.8,1.733C57.593,57.2,61.948,62.9,64.316,66c.036.041.06.062.1.062s.09-.043.09-.132h0V54.23C64.581,54.228,64.625,54.226,64.7,54.226Zm-19.551-.061a3.151,3.151,0,0,1,2.29.843,2.979,2.979,0,0,1,.777,2.231V70.415c-.077,0-.168.008-.241,0a3.132,3.132,0,0,1-2.281-.84,2.978,2.978,0,0,1-.784-2.232V54.17C44.982,54.166,45.075,54.165,45.145,54.165Zm-25.3.24a3.943,3.943,0,0,1,2.652.705,2.156,2.156,0,0,1,.743,1.624c0,1.02-.375,1.718-2.15,3.161-1.031.839-7.745,6.274-8.756,7.088a.243.243,0,0,0-.111.174c0,.077.07.124.2.124h7.428a3.746,3.746,0,0,1,2.766.738,2.721,2.721,0,0,1,.745,2.05h0v.106H11.4a3.946,3.946,0,0,1-2.656-.706A2.159,2.159,0,0,1,8,67.849c0-1.014.354-1.729,2.138-3.163,1.546-1.242,7.744-6.257,8.807-7.113.082-.065.117-.1.117-.168s-.072-.1-.2-.1h-7.5a2.926,2.926,0,0,1-2.517-1.05,3.066,3.066,0,0,1-.42-1.665c0-.059,0-.122,0-.181H19.849ZM46.56,49.024a1.956,1.956,0,1,1-1.953,1.955A1.955,1.955,0,0,1,46.56,49.024Zm20.954-34.38.2.006V26.185a16.793,16.793,0,0,1-12.341,16.2,5.195,5.195,0,0,1,1.679-6.8,11.2,11.2,0,0,0,5.1-9.049l.006-.357V19.817a5.008,5.008,0,0,1,1.31-3.757,5.307,5.307,0,0,1,3.852-1.416ZM41.1,35.726a3.317,3.317,0,1,1-3.31,3.318A3.314,3.314,0,0,1,41.1,35.726Zm7.764,0a3.317,3.317,0,1,1-3.305,3.318A3.312,3.312,0,0,1,48.868,35.726Zm-28.351-21.2c5.446,0,8.736,3.254,8.736,7.074a7.912,7.912,0,0,1-1.42,4.372c-.8-4.1-3.043-6.34-6.686-6.34-3.887,0-7.3,2.942-7.3,8.323,0,5.292,3.423,8.913,8.55,8.913a8.488,8.488,0,0,0,6.2-2.441c1.831-1.814,2.9-4.619,2.9-9.03V19.817a5.011,5.011,0,0,1,1.309-3.757,5.319,5.319,0,0,1,3.857-1.416c.123,0,.273,0,.4.007V26.574c0,.435-.011.857-.031,1.266h8.617A5.729,5.729,0,0,0,51.369,22.1V19.817a5.01,5.01,0,0,1,1.307-3.757,5.322,5.322,0,0,1,3.859-1.416c.119,0,.27,0,.392.007v5.594L56.918,22.1A11.283,11.283,0,0,1,45.648,33.4h-9.7a13.45,13.45,0,0,1-2.755,4.422,14.469,14.469,0,0,1-10.809,4.35A13.912,13.912,0,0,1,8,27.826C8,19.851,13.447,14.531,20.517,14.531Zm2.014,9.663a3.319,3.319,0,1,1-3.313,3.32A3.315,3.315,0,0,1,22.531,24.193ZM64.4,6a3.318,3.318,0,1,1-3.31,3.318A3.316,3.316,0,0,1,64.4,6Z" transform="translate(-8 -6)" fill="#b7b7b7" fill-rule="evenodd"/>
</svg>
