<svg xmlns="http://www.w3.org/2000/svg" width="35" height="38" viewBox="0 0 35 38">
  <g id="zain_logo" transform="translate(-12.381 -12.953)">
    <path id="Combined-Shape" d="M22.77,34.321a5.02,5.02,0,0,1,3.764,1.525,5.437,5.437,0,0,1,1.347,3.939h0v4.173c-.043,0-.1.005-.136.005a1.855,1.855,0,0,1-1.345-.5,1.768,1.768,0,0,1-.455-1.315h0V40.194a4.237,4.237,0,0,0-1.011-3.162,2.952,2.952,0,0,0-2.16-.855A2.893,2.893,0,0,0,19.8,39.3a2.613,2.613,0,0,0,2.541,2.915c1.268,0,2.053-.783,2.327-2.219a2.771,2.771,0,0,1,.5,1.532c0,1.337-1.146,2.474-3.042,2.474a4.347,4.347,0,0,1-4.356-4.656A4.856,4.856,0,0,1,22.77,34.321Zm18.462.1a1.782,1.782,0,0,1,1.312.5A1.757,1.757,0,0,1,43,36.23h0v6.016a1.874,1.874,0,0,1-.421,1.285,1.409,1.409,0,0,1-1.058.431c-.6,0-1.058-.257-1.644-1.022S36.2,38.1,35.38,37.025a.074.074,0,0,0-.062-.038c-.03,0-.053.027-.053.079h0v6.893c-.042,0-.068,0-.109,0a1.776,1.776,0,0,1-1.311-.5,1.754,1.754,0,0,1-.454-1.315h0V36.136a1.878,1.878,0,0,1,.416-1.286,1.413,1.413,0,0,1,1.061-.431c.6,0,1.063.254,1.644,1.021.556.733,3.109,4.091,4.5,5.917.021.024.035.037.06.037s.052-.026.052-.078h0V34.421Zm-11.459-.036a1.841,1.841,0,0,1,1.342.5,1.761,1.761,0,0,1,.455,1.315v7.765c-.045,0-.1,0-.141,0a1.83,1.83,0,0,1-1.337-.5,1.761,1.761,0,0,1-.459-1.315V34.385C29.677,34.383,29.731,34.382,29.772,34.382Zm-14.827.141a2.3,2.3,0,0,1,1.554.416,1.273,1.273,0,0,1,.435.957c0,.6-.22,1.012-1.26,1.863-.6.495-4.54,3.7-5.133,4.177a.144.144,0,0,0-.065.1c0,.045.041.073.117.073h4.354a2.188,2.188,0,0,1,1.621.435,1.608,1.608,0,0,1,.436,1.208h0v.063H9.992A2.3,2.3,0,0,1,8.436,43.4,1.275,1.275,0,0,1,8,42.446c0-.6.208-1.019,1.253-1.864.906-.732,4.539-3.687,5.162-4.192.048-.039.069-.061.069-.1s-.042-.061-.12-.061h-4.4a1.711,1.711,0,0,1-1.476-.619,1.814,1.814,0,0,1-.246-.981c0-.035,0-.072,0-.107h6.7ZM30.6,31.353A1.153,1.153,0,1,1,29.457,32.5,1.149,1.149,0,0,1,30.6,31.353ZM42.884,11.094l.115,0v6.8a9.887,9.887,0,0,1-7.234,9.548,3.072,3.072,0,0,1,.984-4.005A6.608,6.608,0,0,0,39.738,18.1l0-.211V14.142a2.96,2.96,0,0,1,.768-2.214,3.1,3.1,0,0,1,2.258-.835ZM27.4,23.517a1.955,1.955,0,1,1-1.94,1.955A1.948,1.948,0,0,1,27.4,23.517Zm4.551,0a1.955,1.955,0,1,1-1.937,1.955A1.946,1.946,0,0,1,31.955,23.517ZM15.337,11.027c3.192,0,5.12,1.917,5.12,4.169a4.68,4.68,0,0,1-.833,2.576c-.467-2.417-1.784-3.736-3.919-3.736-2.278,0-4.278,1.734-4.278,4.9,0,3.119,2.006,5.252,5.012,5.252a4.962,4.962,0,0,0,3.633-1.438c1.073-1.069,1.7-2.722,1.7-5.321V14.142a2.962,2.962,0,0,1,.767-2.214,3.108,3.108,0,0,1,2.261-.835c.072,0,.16,0,.232,0v7.026c0,.256-.007.505-.018.746h5.051a3.367,3.367,0,0,0,3.354-3.38V14.142a2.962,2.962,0,0,1,.766-2.214,3.11,3.11,0,0,1,2.262-.835c.069,0,.158,0,.23,0v3.3l-.006,1.1a6.631,6.631,0,0,1-6.606,6.658H24.381a7.932,7.932,0,0,1-1.615,2.606,8.458,8.458,0,0,1-6.336,2.563A8.176,8.176,0,0,1,8,18.862C8,14.162,11.193,11.027,15.337,11.027Zm1.18,5.694a1.956,1.956,0,1,1-1.942,1.956A1.948,1.948,0,0,1,16.517,16.721ZM41.057,6a1.955,1.955,0,1,1-1.94,1.955A1.949,1.949,0,0,1,41.057,6Z" transform="translate(4.381 6.953)" fill="#fff" fill-rule="evenodd"/>
  </g>
</svg>
